[pre][img]http://img819.imageshack.us/img819/7700/immortalsposter03.jpg[/img]

*******************************************************************************
                  Immortals.2011.DVDSCR.XviD.AC3-PRESTiGE
*******************************************************************************


[color=red]General Information:[/color]

Complete name                    : Immortals.2011.DVDSCR.XviD.AC3-PRESTiGE
Format                           : AVI
Format/Info                      : Audio Video Interleave
File size                        : 805 MiB
Duration                         : 1h 42mn
Overall bit rate                 : 1 095 Kbps
Subs				 : N/A
Source				 : REFiLL Many THANKS
Encoder				 : [b][color=maroon]akosipalos[/color][/b]


iMDB: http://www.imdb.com/title/tt1253864/  


[color=red]Video[/color]

ID                               : 0
Format                           : MPEG-4 Visual
Format profile                   : Advanced Simple@L5
Format settings, BVOP            : 2
Format settings, QPel            : No
Format settings, GMC             : No warppoints
Format settings, Matrix          : Default (H.263)
Codec ID                         : XVID
Codec ID/Hint                    : XviD
Duration                         : 1h 42mn
Bit rate                         : 638 Kbps
Width                            : 652 pixels
Height                           : 352 pixels
Display aspect ratio             : 1.852
Frame rate                       : 29.970 fps
Color space                      : YUV
Chroma subsampling               : 4:2:0
Bit depth                        : 8 bits
Scan type                        : Progressive
Compression mode                 : Lossy
Bits/(Pixel*Frame)               : 0.093
Stream size                      : 469 MiB (58%)
Writing library                  : XviD 1.2.1 (UTC 2008-12-04)

[color=red]Audio[/color]

ID                               : 1
Format                           : AC-3
Format/Info                      : Audio Coding 3
Mode extension                   : CM (complete main)
Codec ID                         : 2000
Duration                         : 1h 42mn
Bit rate mode                    : Constant
Bit rate                         : 448 Kbps
Channel(s)                       : 2 channels
Channel positions                : Front: L R
Sampling rate                    : 48.0 KHz
Bit depth                        : 16 bits
Compression mode                 : Lossy
Stream size                      : 329 MiB (41%)
Alignment                        : Aligned on interleaves
Interleave, duration             : 64 ms (1.92 video frames)
Interleave, preload duration     : 192 ms


[color=red]Plot:[/color]

Theseus is a mortal man chosen by Zeus to lead the fight against the ruthless King Hyperion, 
who is on a rampage across Greece to obtain a weapon that can destroy humanity.


[color=red]Cast:[/color]

Henry Cavill, Mickey Rourke and John Hurt


[color=red]Screens:[/color]

[img]http://i824.photobucket.com/albums/zz161/akosipalos/6-26.png[/img]

[img]http://i824.photobucket.com/albums/zz161/akosipalos/5-110.png[/img]

[img]http://i824.photobucket.com/albums/zz161/akosipalos/4-130.png[/img]

[img]http://i824.photobucket.com/albums/zz161/akosipalos/1-156.png[/img]

[img]http://i824.photobucket.com/albums/zz161/akosipalos/3-135.png[/img]

[img]http://i824.photobucket.com/albums/zz161/akosipalos/2-135.png[/img]


[color=red]Release Notes:[/color]

WE DONT RELEASE EVERYTHING TO OTHERS SITES YOU WANT MORE OF OUR STUFF COME FIND US AT .......

WE ARE LOOKING FOR SUPPLIERS BLURAY CAM R5 PRE RETAIL DVD GOT SOMETHING WE MIGHT LIKE WHEN YOU FIND US TELL US.......



ENCODER'S - ANYTHING AT ALL EMAIL US AT..... prestige@hushmail.me

** ** ** ** ** ** ** ** **

PRESTiGE is the level of respect at which one is regarded by others....RIzE Above Or Sink Below...


-------------------------------------------------------------------------------
                                 GREETZ:
-------------------------------------------------------------------------------


| Twisted | Bigguy | CTFX | Whitestag13 | Jungledave | PA4U2C | mtyy | floridajoe | marsby | cld | Stortrapp | Stoner |
Rock | Ulap | rizal | mannilim | musikera | centserick2 | AMB | RiZAL Team RG | rock3r | canislupus | sickie | fun2knytz and
To All Encoders Past And Present...


[img]http://i824.photobucket.com/albums/zz161/akosipalos/PRESTiGE-3.png[/img]


[b][color=red]PRESTiGE[/color] is the level of respect at which one is regarded by others....RIzE Above Or Sink Below...[/b]


-------------------------------------------------------------------------------
Generated with Cool NFO Creator - http://fly.to/coolbeans
-------------------------------------------------------------------------------
[/pre]
